<svg xmlns="http://www.w3.org/2000/svg" width="1200" height="630" viewBox="0 0 1200 630"><path fill="#fefbfb" d="M0 0h1200v630H0z"/><defs><clipPath id="a"><path d="M109 39h1048a4 4 0 0 1 4 4v496a4 4 0 0 1-4 4H109a4 4 0 0 1-4-4V43a4 4 0 0 1 4-4"/></clipPath></defs><g opacity=".9"><path fill="#ecebeb" d="M109 39h1048a4 4 0 0 1 4 4v496a4 4 0 0 1-4 4H109a4 4 0 0 1-4-4V43a4 4 0 0 1 4-4"/><path fill="none" stroke="#000" stroke-width="8" d="M106.172 40.172A4 4 0 0 1 109 39h1048a4 4 0 0 1 4 4v496a4 4 0 0 1-4 4H109a4 4 0 0 1-4-4V43a4 4 0 0 1 1.172-2.828" clip-path="url(#a)"/></g><defs><clipPath id="b"><path d="M76 63h1048a4 4 0 0 1 4 4v496a4 4 0 0 1-4 4H76a4 4 0 0 1-4-4V67a4 4 0 0 1 4-4"/></clipPath></defs><path fill="#fefbfb" d="M76 63h1048a4 4 0 0 1 4 4v496a4 4 0 0 1-4 4H76a4 4 0 0 1-4-4V67a4 4 0 0 1 4-4"/><path fill="none" stroke="#000" stroke-width="8" d="M73.172 64.172A4 4 0 0 1 76 63h1048a4 4 0 0 1 4 4v496a4 4 0 0 1-4 4H76a4 4 0 0 1-4-4V67a4 4 0 0 1 1.172-2.828" clip-path="url(#b)"/><clipPath id="c"><path d="M128 103h944v94H128z"/></clipPath><mask id="d"><path fill="#fff" d="M128 103h944v94H128z"/></mask><path d="M132.2 183v-53.3h10.7v22.9h.5q1.4-3.3 4-5.5t7-2.2q3.1 0 5.7 1.2 2.5 1.1 4.4 3.5 1.8 2.4 2.8 6.1 1.1 3.6 1.1 8.7 0 5-1.1 8.7-1 3.7-2.8 6-1.9 2.4-4.4 3.6-2.6 1.1-5.7 1.1-4.4 0-7-2.1-2.6-2.1-4-5.5h-.5v6.8h-10.7Zm17.6-7.5q3.6 0 5.6-2.2 1.9-2.2 1.9-6v-5.8q0-3.9-1.9-6.1-2-2.2-5.6-2.2-2.8 0-4.8 1.4-2.1 1.4-2.1 4.3v10.9q0 3 2.1 4.4 2 1.3 4.8 1.3Zm46.8-14.1 5.6-15.6H213l-17.5 43.1q-1.6 4.1-4.4 6.3-2.7 2.2-7.4 2.2h-7.4v-8.3h8.9l2.3-6.4-14.9-36.9H184l5.4 15.6 3.4 10.8h.6l3.2-10.8Zm40.4 22.4q-9.4 0-14.2-5.2-4.8-5.2-4.8-14.1 0-4.5 1.3-8.2 1.2-3.6 3.6-6.1 2.3-2.6 5.6-3.9 3.4-1.4 7.6-1.4 4.1 0 7.5 1.4 3.3 1.3 5.6 3.7 2.3 2.5 3.5 6 1.3 3.5 1.3 7.8v3.2h-25.4v.6q0 3.6 2.2 5.8 2.2 2.2 6.6 2.2 3.3 0 5.7-1.3 2.3-1.2 4.1-3.3l5.7 6.3q-2.1 2.6-6 4.6-3.9 1.9-9.9 1.9Zm-.9-31.2q-3.4 0-5.5 2.1-2 2.1-2 5.7v.6h15v-.6q0-3.7-2-5.7-2-2.1-5.5-2.1ZM305 183v-53.3h10.7v22.9h.5q1.4-3.3 4-5.5t7-2.2q3.1 0 5.7 1.2 2.5 1.1 4.4 3.5 1.8 2.4 2.8 6.1 1.1 3.6 1.1 8.7 0 5-1.1 8.7-1 3.7-2.8 6-1.9 2.4-4.4 3.6-2.6 1.1-5.7 1.1-4.4 0-7-2.1-2.6-2.1-4-5.5h-.5v6.8H305Zm17.6-7.5q3.6 0 5.6-2.2 1.9-2.2 1.9-6v-5.8q0-3.9-1.9-6.1-2-2.2-5.6-2.2-2.8 0-4.8 1.4-2.1 1.4-2.1 4.3v10.9q0 3 2.1 4.4 2 1.3 4.8 1.3Zm49.3 7.5v-6.8h-.5q-1.2 3.2-3.8 5.4-2.6 2.2-7.1 2.2-2.7 0-4.9-.9t-3.8-2.7q-1.6-1.8-2.5-4.4-.9-2.6-.9-6v-24H359v22.6q0 7.2 6.3 7.2 1.2 0 2.4-.3t2.1-1q.9-.7 1.5-1.7t.6-2.4v-24.4h10.6V183h-10.6Zm57.3 3.7q0 5.9-5 8.7-5 2.8-15.6 2.8-5.3 0-8.8-.6-3.5-.6-5.5-1.8-2.1-1.1-2.9-2.7-.8-1.6-.8-3.5 0-3.1 1.9-4.7 1.8-1.7 5.2-2.5v-.5q-2.4-.7-3.8-2t-1.4-3.8q0-2.7 1.9-4 1.8-1.3 4.8-2v-.5q-3.3-1.6-5.1-4.4-1.9-2.9-1.9-7 0-3.3 1.2-5.7 1.1-2.5 3.3-4.2 2.1-1.6 5-2.5 3-.9 6.7-.9 3.5 0 6.5.8v-2q0-2.1 1.5-3.6 1.5-1.4 4.2-1.4h6.6v7.7h-9v.7q3.1 1.6 4.7 4.4 1.7 2.7 1.7 6.7 0 3.2-1.1 5.7-1.2 2.4-3.3 4.1-2.2 1.7-5.2 2.6-3 .8-6.6.8-1.7 0-3.2-.1-1.5-.2-2.9-.6-.8.4-1.3 1.1-.6.6-.6 1.6 0 .9.5 1.4.4.5 1.2.8.7.2 1.7.3 1 .1 2.1.1h8.5q4 0 6.8.8t4.6 2.2q1.8 1.4 2.6 3.4.8 1.9.8 4.3Zm-10.1.8q0-1.5-1.2-2.3-1.1-.8-4.3-.8h-12.8q-1.4 1.2-1.4 3 0 1.7 1.4 2.9 1.5 1.1 5 1.1h6.3q3.7 0 5.3-1 1.7-1 1.7-2.9Zm-10.7-22.8q3.2 0 4.7-1.6t1.5-4.1v-1.7q0-2.4-1.5-4t-4.7-1.6q-3.2 0-4.6 1.6-1.5 1.6-1.5 4v1.7q0 2.5 1.5 4.1 1.4 1.6 4.6 1.6ZM514.5 183h-38.6v-56.2h38.6V183Zm-31.4-49v41.8h24.2V134h-24.2Zm74.6 49h-38.6v-56.2h38.6V183Zm-31.4-49v41.8h24.2V134h-24.2Zm74.6 49h-38.6v-56.2h38.6V183Zm-31.4-49v41.8h24.2V134h-24.2Zm74.6 49h-38.6v-56.2h38.6V183Zm-31.4-49v41.8h24.2V134h-24.2Zm74.6 49h-38.6v-56.2h38.6V183Zm-31.4-49v41.8h24.2V134h-24.2Z" clip-path="url(#c)" mask="url(#d)"/><path d="M130.7 520.3v-20.7h2.2v8.6h.1q1.4-2.7 4.5-2.7 2.6 0 4.1 2 1.5 2 1.5 5.5 0 3.6-1.5 5.6-1.5 2-4.1 2-3.1 0-4.5-2.7h-.1v2.4h-2.2Zm5.9-1.7q2 0 3-1.2 1.1-1.2 1.1-3.1v-2.5q0-1.9-1.1-3.1-1-1.2-3-1.2-.8 0-1.4.2-.7.2-1.2.5-.5.4-.8 1-.3.5-.3 1.2v5.3q0 .7.3 1.2.3.6.8.9.5.4 1.2.6.6.2 1.4.2Zm18.8-6.7 2.5-6.1h2.2l-7.2 17.6q-.2.7-.5 1.1-.3.5-.7.8-.5.3-1 .4-.6.2-1.4.2h-2.2V524h3.4l1.6-4-5.8-14.2h2.3l2.4 6.1 2.2 5.5h.1l2.1-5.5Z"/><clipPath id="e"><path d="M178 489h50v36h-50z"/></clipPath><mask id="f"><path fill="#fff" d="M178 489h50v36h-50z"/></mask><path d="m187.9 511.7 2.1-6.1h4.3l-6.8 16.8q-.7 1.6-1.7 2.5-1.1.8-3 .8H180v-3.2h3.5l.9-2.5-5.9-14.4h4.5l2.1 6.1 1.3 4.2h.2l1.3-4.2Zm15.7 8.7q-3.6 0-5.5-2t-1.9-5.5q0-1.7.5-3.2.5-1.4 1.4-2.4.9-1 2.2-1.5 1.3-.5 2.9-.5 1.7 0 2.9.5 1.3.5 2.2 1.5.9.9 1.4 2.3.5 1.4.5 3v1.3h-9.9v.2q0 1.4.9 2.3.9.8 2.5.8 1.3 0 2.2-.5 1-.4 1.6-1.3l2.3 2.5q-.9 1-2.4 1.8-1.5.7-3.8.7Zm-.3-12.1q-1.4 0-2.2.8-.8.8-.8 2.2v.3h5.8v-.3q0-1.4-.7-2.2-.8-.8-2.1-.8Zm14.3 11.8h-4.2v-14.5h4.2v2.7h.1l.6-1.2q.4-.5.9-.9t1.2-.7q.7-.2 1.6-.2 1 0 1.9.4.9.3 1.5 1t.9 1.7q.4 1 .4 2.3v9.4h-4.2v-8.8q0-2.8-2.4-2.8-.5 0-.9.1-.5.2-.9.4-.3.3-.5.7-.2.4-.2.9v9.5Z" clip-path="url(#e)" mask="url(#f)"/><clipPath id="g"><path d="M1021 489h51v36h-51z"/></clipPath><mask id="h"><path fill="#fff" d="M1021 489h51v36h-51z"/></mask><path d="m1030.9 511.7 2.1-6.1h4.3l-6.8 16.8q-.7 1.6-1.7 2.5-1.1.8-3 .8h-2.8v-3.2h3.5l.9-2.5-5.9-14.4h4.5l2.1 6.1 1.3 4.2h.2l1.3-4.2Zm15.7 8.7q-3.6 0-5.5-2t-1.9-5.5q0-1.7.5-3.2.5-1.4 1.4-2.4.9-1 2.2-1.5 1.3-.5 2.9-.5 1.7 0 2.9.5 1.3.5 2.2 1.5.9.9 1.4 2.3.5 1.4.5 3v1.3h-9.9v.2q0 1.4.9 2.3.9.8 2.5.8 1.3 0 2.2-.5 1-.4 1.6-1.3l2.3 2.5q-.9 1-2.4 1.8-1.5.7-3.8.7Zm-.3-12.1q-1.4 0-2.2.8-.8.8-.8 2.2v.3h5.8v-.3q0-1.4-.7-2.2-.8-.8-2.1-.8Zm14.3 11.8h-4.2v-14.5h4.2v2.7h.1l.6-1.2q.4-.5.9-.9t1.2-.7q.7-.2 1.6-.2 1 0 1.9.4.9.3 1.5 1t.9 1.7q.4 1 .4 2.3v9.4h-4.2v-8.8q0-2.8-2.4-2.8-.5 0-.9.1-.5.2-.9.4-.3.3-.5.7-.2.4-.2.9v9.5Z" clip-path="url(#g)" mask="url(#h)"/></svg>