<svg xmlns="http://www.w3.org/2000/svg" width="1200" height="630" viewBox="0 0 1200 630"><path fill="#fefbfb" d="M0 0h1200v630H0z"/><defs><clipPath id="a"><path d="M109 39h1048a4 4 0 0 1 4 4v496a4 4 0 0 1-4 4H109a4 4 0 0 1-4-4V43a4 4 0 0 1 4-4"/></clipPath></defs><g opacity=".9"><path fill="#ecebeb" d="M109 39h1048a4 4 0 0 1 4 4v496a4 4 0 0 1-4 4H109a4 4 0 0 1-4-4V43a4 4 0 0 1 4-4"/><path fill="none" stroke="#000" stroke-width="8" d="M106.172 40.172A4 4 0 0 1 109 39h1048a4 4 0 0 1 4 4v496a4 4 0 0 1-4 4H109a4 4 0 0 1-4-4V43a4 4 0 0 1 1.172-2.828" clip-path="url(#a)"/></g><defs><clipPath id="b"><path d="M76 63h1048a4 4 0 0 1 4 4v496a4 4 0 0 1-4 4H76a4 4 0 0 1-4-4V67a4 4 0 0 1 4-4"/></clipPath></defs><path fill="#fefbfb" d="M76 63h1048a4 4 0 0 1 4 4v496a4 4 0 0 1-4 4H76a4 4 0 0 1-4-4V67a4 4 0 0 1 4-4"/><path fill="none" stroke="#000" stroke-width="8" d="M73.172 64.172A4 4 0 0 1 76 63h1048a4 4 0 0 1 4 4v496a4 4 0 0 1-4 4H76a4 4 0 0 1-4-4V67a4 4 0 0 1 1.172-2.828" clip-path="url(#b)"/><clipPath id="c"><path d="M128 103h944v94H128z"/></clipPath><mask id="d"><path fill="#fff" d="M128 103h944v94H128z"/></mask><path d="M137.3 132.7h27.5v36.2q0 3.4-1.2 6.2-1.2 2.7-3.4 4.7-2.2 1.9-5.3 3-3.1 1-6.9 1-7.7 0-11.9-3.8-4.2-3.9-5.4-10.2l10.3-2q.5 3.2 2.2 5.2 1.6 2 4.8 2 2.8 0 4.3-1.7 1.5-1.8 1.5-5.5v-26.2h-16.5v-8.9Zm75.1 50.3h-6.1q-3.3 0-5.4-1.7-2-1.7-2.3-4.9h-.4q-1 3.7-4 5.5-3 1.9-7.3 1.9-5.4 0-8.7-2.9-3.3-2.9-3.3-8.2 0-5.8 4.3-8.6 4.2-2.8 12.4-2.8h6v-1.9q0-3.3-1.5-5-1.6-1.7-5.2-1.7-3.4 0-5.5 1.3t-3.6 3.4l-5.8-5.2q1.8-3.2 5.8-5.2 4-2.1 10.3-2.1 7.6 0 11.9 3.5 4.3 3.5 4.3 10.6v16.2h4.1v7.8Zm-21.5-6.2q2.8 0 4.8-1.3 1.9-1.4 1.9-4V167h-5.7q-6.5 0-6.5 4.4v1.5q0 1.9 1.5 2.9t4 1Zm51.4 6.2h-12.6l-13.4-37.2h11.3l4.8 15.9 3.5 12.4h.6l3.5-12.4 4.9-15.9h10.8L242.3 183Zm56.5 0h-6.1q-3.3 0-5.4-1.7-2-1.7-2.3-4.9h-.4q-1 3.7-4 5.5-3 1.9-7.3 1.9-5.4 0-8.7-2.9-3.3-2.9-3.3-8.2 0-5.8 4.3-8.6 4.2-2.8 12.4-2.8h6v-1.9q0-3.3-1.5-5-1.6-1.7-5.2-1.7-3.4 0-5.5 1.3t-3.6 3.4l-5.8-5.2q1.8-3.2 5.8-5.2 4-2.1 10.3-2.1 7.6 0 11.9 3.5 4.3 3.5 4.3 10.6v16.2h4.1v7.8Zm-21.5-6.2q2.8 0 4.8-1.3 1.9-1.4 1.9-4V167h-5.7q-6.5 0-6.5 4.4v1.5q0 1.9 1.5 2.9t4 1Zm44.3 7q-6.3 0-11-2.1T303 176l6.3-6.9q2.7 3.1 6 4.5t6.7 1.4q3.9 0 5.9-1.7 2-1.7 2-5 0-2.6-1.6-4-1.5-1.4-5.2-1.9l-5.2-.9q-6.8-1.2-9.8-5-3.1-3.9-3.1-9.4 0-7.3 4.8-11.3 4.8-4 13.3-4 5.9 0 10.2 1.8 4.3 1.8 7 4.9l-6.2 6.9q-2-2.3-4.7-3.5-2.8-1.3-6.2-1.3-7.3 0-7.3 6 0 2.6 1.6 3.9 1.7 1.3 5.3 1.9l5.3 1q6.1 1 9.4 4.6 3.3 3.5 3.3 9.5 0 3.5-1.2 6.5t-3.7 5.2q-2.4 2.2-6 3.4-3.5 1.2-8.3 1.2Zm45.5 0q-4.4 0-7.9-1.3t-5.9-3.9q-2.4-2.5-3.7-6.1-1.3-3.6-1.3-8.1 0-4.6 1.3-8.2 1.3-3.6 3.7-6.1 2.4-2.5 5.9-3.8 3.5-1.4 7.8-1.4 6.2 0 9.9 2.5t5.6 6.6l-8.2 4.5q-1-2.2-2.6-3.6-1.6-1.5-4.7-1.5-3.6 0-5.6 2.2-2 2.1-2 5.8v6q0 3.7 2 5.8 2 2.1 5.8 2.1 3.1 0 4.8-1.4 1.8-1.5 3-3.8l8.1 4.6q-2 4.1-5.9 6.6-3.8 2.5-10.1 2.5Zm25.4-.8v-8.3h8.6v-20.6h-8.6v-8.3h19.3v10.5h.5q.5-2 1.4-3.9.9-1.9 2.3-3.4t3.4-2.3q2-.9 4.7-.9h3.6v9.8h-8q-3.9 0-5.9 2.3-2 2.4-2 5.8v11H424v8.3h-31.5Zm61.8-42q-3.6 0-5-1.4-1.4-1.5-1.4-3.6v-2.1q0-2.1 1.4-3.6 1.4-1.4 5-1.4t5 1.4q1.4 1.5 1.4 3.6v2.1q0 2.1-1.4 3.6-1.4 1.4-5 1.4Zm-17.1 42v-8.3H449v-20.6h-11.8v-8.3h22.4v28.9h11v8.3h-33.4Zm40.6 14.4v-51.6h10.7v6.8h.5q1.4-3.3 4-5.5t7-2.2q3.1 0 5.7 1.2 2.5 1.1 4.4 3.5 1.8 2.4 2.8 6.1 1.1 3.6 1.1 8.7 0 5-1.1 8.7-1 3.7-2.8 6-1.9 2.4-4.4 3.6-2.6 1.1-5.7 1.1-4.4 0-7-2.1-2.6-2.1-4-5.5h-.5v21.2h-10.7Zm17.6-21.9q3.6 0 5.6-2.2 1.9-2.2 1.9-6v-5.8q0-3.9-1.9-6.1-2-2.2-5.6-2.2-2.8 0-4.8 1.4-2.1 1.4-2.1 4.3v10.9q0 3 2.1 4.4 2 1.3 4.8 1.3ZM555 183h-13.7q-5.8 0-8.6-3.1-2.8-3-2.8-7.7v-18.1h-10.1v-8.3h6.6q2.4 0 3.4-.9 1-1 1-3.5v-8.7h9.8v13.1H555v8.3h-14.4v20.6H555v8.3Zm89.7-41.4h-14.5V183h-10.8v-41.4h-14.5v-8.9h39.8v8.9Zm23.3 42.2q-4.3 0-7.8-1.3-3.4-1.3-5.8-3.9-2.5-2.5-3.8-6.1-1.2-3.6-1.2-8.1 0-4.6 1.2-8.2 1.3-3.6 3.8-6.1 2.4-2.5 5.8-3.8 3.5-1.4 7.8-1.4t7.8 1.4q3.4 1.3 5.8 3.8 2.5 2.5 3.8 6.1 1.2 3.6 1.2 8.2 0 4.5-1.2 8.1-1.3 3.6-3.8 6.1-2.4 2.6-5.8 3.9-3.5 1.3-7.8 1.3Zm0-7.9q3.6 0 5.6-2.2 2-2.3 2-6.4v-5.9q0-4.1-2-6.3t-5.6-2.2q-3.6 0-5.6 2.2-2 2.2-2 6.3v5.9q0 4.1 2 6.4 2 2.2 5.6 2.2Zm49.9 7.1v-6.8h-.5q-1.4 3.4-4 5.5t-7 2.1q-3.1 0-5.7-1.1-2.5-1.2-4.4-3.6-1.8-2.3-2.8-6-1.1-3.7-1.1-8.7 0-5.1 1.1-8.7 1-3.7 2.8-6.1 1.9-2.4 4.4-3.5 2.6-1.2 5.7-1.2 2.2 0 3.9.6 1.8.6 3.1 1.6t2.3 2.4q1 1.4 1.7 3.1h.5v-22.9h10.7V183h-10.7Zm-6.9-7.5q2.8 0 4.8-1.3 2.1-1.4 2.1-4.4v-10.9q0-2.9-2.1-4.3-2-1.4-4.8-1.4-3.6 0-5.6 2.2-1.9 2.2-1.9 6.1v5.8q0 3.8 1.9 6 2 2.2 5.6 2.2Zm43.4 8.3q-4.3 0-7.8-1.3-3.4-1.3-5.8-3.9-2.5-2.5-3.8-6.1-1.2-3.6-1.2-8.1 0-4.6 1.2-8.2 1.3-3.6 3.8-6.1 2.4-2.5 5.8-3.8 3.5-1.4 7.8-1.4t7.8 1.4q3.4 1.3 5.8 3.8 2.5 2.5 3.8 6.1 1.2 3.6 1.2 8.2 0 4.5-1.2 8.1-1.3 3.6-3.8 6.1-2.4 2.6-5.8 3.9-3.5 1.3-7.8 1.3Zm0-7.9q3.6 0 5.6-2.2 2-2.3 2-6.4v-5.9q0-4.1-2-6.3t-5.6-2.2q-3.6 0-5.6 2.2-2 2.2-2 6.3v5.9q0 4.1 2 6.4 2 2.2 5.6 2.2Zm60.7 7.1h-32.5v-50.3h10.9v41.4h21.6v8.9Zm28-42q-3.6 0-5-1.4-1.4-1.5-1.4-3.6v-2.1q0-2.1 1.4-3.6 1.4-1.4 5-1.4t5 1.4q1.4 1.5 1.4 3.6v2.1q0 2.1-1.4 3.6-1.4 1.4-5 1.4ZM826 183v-8.3h11.8v-20.6H826v-8.3h22.4v28.9h11v8.3H826Zm57.6.8q-6.2 0-10.8-1.9-4.6-1.8-6.9-5.1l6-5.5q2.2 2.4 5.1 3.7 2.9 1.3 6.6 1.3 3.2 0 5-.9 1.8-1 1.8-3 0-1.6-1.2-2.2-1.2-.6-3.4-1l-6-.9q-2.5-.4-4.7-1.2-2.1-.7-3.7-2t-2.5-3.2q-1-1.8-1-4.5 0-5.8 4.5-9.2 4.5-3.3 12.5-3.3 5.5 0 9.4 1.5 3.8 1.5 6.1 4.2l-5.3 6.1q-1.7-1.8-4.3-3.1-2.6-1.2-6.2-1.2-6.2 0-6.2 3.8 0 1.6 1.2 2.2 1.2.6 3.4 1l5.9.9q2.5.4 4.7 1.2 2.1.7 3.8 2 1.6 1.3 2.5 3.2.9 1.9.9 4.5 0 5.8-4.5 9.2-4.5 3.4-12.7 3.4Zm60.2-.8h-13.7q-5.8 0-8.6-3.1-2.8-3-2.8-7.7v-18.1h-10.1v-8.3h6.6q2.4 0 3.4-.9 1-1 1-3.5v-8.7h9.8v13.1h14.4v8.3h-14.4v20.6h14.4v8.3Z" clip-path="url(#c)" mask="url(#d)"/><path d="M130.7 520.3v-20.7h2.2v8.6h.1q1.4-2.7 4.5-2.7 2.6 0 4.1 2 1.5 2 1.5 5.5 0 3.6-1.5 5.6-1.5 2-4.1 2-3.1 0-4.5-2.7h-.1v2.4h-2.2Zm5.9-1.7q2 0 3-1.2 1.1-1.2 1.1-3.1v-2.5q0-1.9-1.1-3.1-1-1.2-3-1.2-.8 0-1.4.2-.7.2-1.2.5-.5.4-.8 1-.3.5-.3 1.2v5.3q0 .7.3 1.2.3.6.8.9.5.4 1.2.6.6.2 1.4.2Zm18.8-6.7 2.5-6.1h2.2l-7.2 17.6q-.2.7-.5 1.1-.3.5-.7.8-.5.3-1 .4-.6.2-1.4.2h-2.2V524h3.4l1.6-4-5.8-14.2h2.3l2.4 6.1 2.2 5.5h.1l2.1-5.5Z"/><clipPath id="e"><path d="M178 489h50v36h-50z"/></clipPath><mask id="f"><path fill="#fff" d="M178 489h50v36h-50z"/></mask><path d="m187.9 511.7 2.1-6.1h4.3l-6.8 16.8q-.7 1.6-1.7 2.5-1.1.8-3 .8H180v-3.2h3.5l.9-2.5-5.9-14.4h4.5l2.1 6.1 1.3 4.2h.2l1.3-4.2Zm15.7 8.7q-3.6 0-5.5-2t-1.9-5.5q0-1.7.5-3.2.5-1.4 1.4-2.4.9-1 2.2-1.5 1.3-.5 2.9-.5 1.7 0 2.9.5 1.3.5 2.2 1.5.9.9 1.4 2.3.5 1.4.5 3v1.3h-9.9v.2q0 1.4.9 2.3.9.8 2.5.8 1.3 0 2.2-.5 1-.4 1.6-1.3l2.3 2.5q-.9 1-2.4 1.8-1.5.7-3.8.7Zm-.3-12.1q-1.4 0-2.2.8-.8.8-.8 2.2v.3h5.8v-.3q0-1.4-.7-2.2-.8-.8-2.1-.8Zm14.3 11.8h-4.2v-14.5h4.2v2.7h.1l.6-1.2q.4-.5.9-.9t1.2-.7q.7-.2 1.6-.2 1 0 1.9.4.9.3 1.5 1t.9 1.7q.4 1 .4 2.3v9.4h-4.2v-8.8q0-2.8-2.4-2.8-.5 0-.9.1-.5.2-.9.4-.3.3-.5.7-.2.4-.2.9v9.5Z" clip-path="url(#e)" mask="url(#f)"/><clipPath id="g"><path d="M1021 489h51v36h-51z"/></clipPath><mask id="h"><path fill="#fff" d="M1021 489h51v36h-51z"/></mask><path d="m1030.9 511.7 2.1-6.1h4.3l-6.8 16.8q-.7 1.6-1.7 2.5-1.1.8-3 .8h-2.8v-3.2h3.5l.9-2.5-5.9-14.4h4.5l2.1 6.1 1.3 4.2h.2l1.3-4.2Zm15.7 8.7q-3.6 0-5.5-2t-1.9-5.5q0-1.7.5-3.2.5-1.4 1.4-2.4.9-1 2.2-1.5 1.3-.5 2.9-.5 1.7 0 2.9.5 1.3.5 2.2 1.5.9.9 1.4 2.3.5 1.4.5 3v1.3h-9.9v.2q0 1.4.9 2.3.9.8 2.5.8 1.3 0 2.2-.5 1-.4 1.6-1.3l2.3 2.5q-.9 1-2.4 1.8-1.5.7-3.8.7Zm-.3-12.1q-1.4 0-2.2.8-.8.8-.8 2.2v.3h5.8v-.3q0-1.4-.7-2.2-.8-.8-2.1-.8Zm14.3 11.8h-4.2v-14.5h4.2v2.7h.1l.6-1.2q.4-.5.9-.9t1.2-.7q.7-.2 1.6-.2 1 0 1.9.4.9.3 1.5 1t.9 1.7q.4 1 .4 2.3v9.4h-4.2v-8.8q0-2.8-2.4-2.8-.5 0-.9.1-.5.2-.9.4-.3.3-.5.7-.2.4-.2.9v9.5Z" clip-path="url(#g)" mask="url(#h)"/></svg>