<svg xmlns="http://www.w3.org/2000/svg" width="1200" height="630" viewBox="0 0 1200 630"><path fill="#fefbfb" d="M0 0h1200v630H0z"/><defs><clipPath id="a"><path d="M109 39h1048a4 4 0 0 1 4 4v496a4 4 0 0 1-4 4H109a4 4 0 0 1-4-4V43a4 4 0 0 1 4-4"/></clipPath></defs><g opacity=".9"><path fill="#ecebeb" d="M109 39h1048a4 4 0 0 1 4 4v496a4 4 0 0 1-4 4H109a4 4 0 0 1-4-4V43a4 4 0 0 1 4-4"/><path fill="none" stroke="#000" stroke-width="8" d="M106.172 40.172A4 4 0 0 1 109 39h1048a4 4 0 0 1 4 4v496a4 4 0 0 1-4 4H109a4 4 0 0 1-4-4V43a4 4 0 0 1 1.172-2.828" clip-path="url(#a)"/></g><defs><clipPath id="b"><path d="M76 63h1048a4 4 0 0 1 4 4v496a4 4 0 0 1-4 4H76a4 4 0 0 1-4-4V67a4 4 0 0 1 4-4"/></clipPath></defs><path fill="#fefbfb" d="M76 63h1048a4 4 0 0 1 4 4v496a4 4 0 0 1-4 4H76a4 4 0 0 1-4-4V67a4 4 0 0 1 4-4"/><path fill="none" stroke="#000" stroke-width="8" d="M73.172 64.172A4 4 0 0 1 76 63h1048a4 4 0 0 1 4 4v496a4 4 0 0 1-4 4H76a4 4 0 0 1-4-4V67a4 4 0 0 1 1.172-2.828" clip-path="url(#b)"/><clipPath id="c"><path d="M128 103h944v370H128z"/></clipPath><mask id="d"><path fill="#fff" d="M128 103h944v370H128z"/></mask><path d="M144.1 164.3V183h-10.6v-50.3h19.4q3.7 0 6.6 1.1 2.8 1.1 4.8 3.2t3 5.1q1 2.9 1 6.6 0 5.3-2.3 9.1t-6.5 5.1l9.8 20.1h-11.8l-8.4-18.7h-5Zm0-8.3h6.2q3.8 0 5.3-1.5 1.5-1.4 1.5-4.7v-2.2q0-3.3-1.5-4.8-1.5-1.4-5.3-1.4h-6.2V156Zm55 27v-6.8h-.5q-1.2 3.2-3.8 5.4-2.6 2.2-7.1 2.2-2.7 0-4.9-.9t-3.8-2.7q-1.6-1.8-2.5-4.4-.9-2.6-.9-6v-24h10.6v22.6q0 7.2 6.3 7.2 1.2 0 2.4-.3t2.1-1q.9-.7 1.5-1.7t.6-2.4v-24.4h10.6V183h-10.6Zm19.5 0v-53.3h10.7v22.9h.5q1.4-3.3 4-5.5t7-2.2q3.1 0 5.7 1.2 2.5 1.1 4.4 3.5 1.8 2.4 2.8 6.1 1.1 3.6 1.1 8.7 0 5-1.1 8.7-1 3.7-2.8 6-1.9 2.4-4.4 3.6-2.6 1.1-5.7 1.1-4.4 0-7-2.1-2.6-2.1-4-5.5h-.5v6.8h-10.7Zm17.6-7.5q3.6 0 5.6-2.2 1.9-2.2 1.9-6v-5.8q0-3.9-1.9-6.1-2-2.2-5.6-2.2-2.8 0-4.8 1.4-2.1 1.4-2.1 4.3v10.9q0 3 2.1 4.4 2 1.3 4.8 1.3Zm46.8-14.1 5.6-15.6h10.8l-17.5 43.1q-1.6 4.1-4.4 6.3-2.7 2.2-7.4 2.2h-7.4v-8.3h8.9l2.3-6.4-14.9-36.9h11.4l5.4 15.6 3.4 10.8h.6l3.2-10.8Zm101 12.5v9.1h-36.2v-9.9l15.9-13.2q4.1-3.5 5.9-6.1 1.8-2.6 1.8-5.5v-.7q0-3.2-1.9-4.8-1.9-1.6-5.1-1.6-3.6 0-5.5 2.1t-2.7 4.9l-9.5-3.6q.9-2.5 2.4-4.9 1.5-2.3 3.9-4.1 2.3-1.7 5.4-2.7 3.1-1.1 7.1-1.1 4.1 0 7.4 1.2 3.2 1.1 5.4 3.2 2.3 2 3.4 4.7 1.2 2.8 1.2 6.1 0 3.1-1.1 5.7-1 2.7-2.8 5-1.9 2.3-4.4 4.4-2.4 2.2-5.3 4.4l-9.5 7.4H384Zm24.8 9.9q-4 0-5.8-1.7-1.8-1.8-1.8-4.3v-2.5q0-2.4 1.8-4.2 1.8-1.8 5.8-1.8t5.8 1.8q1.8 1.8 1.8 4.2v2.5q0 2.5-1.8 4.3-1.8 1.7-5.8 1.7Zm44.8-.8h-11.4l17.3-41.5h-16.3v9.1h-9.1v-17.9h36.1v9.4L453.6 183Zm68.1 0-4.4-37.2h8.9l2.6 30.1h.7l4.4-30.1h9.4l4.3 30.1h.7l2.8-30.1h8.4l-4.4 37.2h-12.7l-3.6-25.7h-.8l-3.6 25.7h-12.7Zm79.5 0h-6.1q-3.3 0-5.4-1.7-2-1.7-2.3-4.9h-.4q-1 3.7-4 5.5-3 1.9-7.3 1.9-5.4 0-8.7-2.9-3.3-2.9-3.3-8.2 0-5.8 4.3-8.6 4.2-2.8 12.4-2.8h6v-1.9q0-3.3-1.5-5-1.6-1.7-5.2-1.7-3.4 0-5.5 1.3t-3.6 3.4l-5.8-5.2q1.8-3.2 5.8-5.2 4-2.1 10.3-2.1 7.6 0 11.9 3.5 4.3 3.5 4.3 10.6v16.2h4.1v7.8Zm-21.5-6.2q2.8 0 4.8-1.3 1.9-1.4 1.9-4V167h-5.7q-6.5 0-6.5 4.4v1.5q0 1.9 1.5 2.9t4 1Zm28.8 6.2v-8.3h8.6v-20.6h-8.6v-8.3h19.3v10.5h.5q.5-2 1.4-3.9.9-1.9 2.3-3.4t3.4-2.3q2-.9 4.7-.9h3.6v9.8h-8q-3.9 0-5.9 2.3-2 2.4-2 5.8v11H640v8.3h-31.5Zm53.2 0h-10.6v-37.2h10.6v6.8h.5q.6-1.6 1.6-3 .9-1.4 2.2-2.4 1.4-1 3.1-1.7 1.8-.6 4-.6 2.7 0 4.9.9t3.8 2.7q1.6 1.8 2.5 4.4.9 2.6.9 6V183h-10.6v-22.7q0-7.2-6.3-7.2-1.2 0-2.4.4-1.2.3-2.1 1-1 .7-1.5 1.7-.6 1-.6 2.3V183Zm51.8-42q-3.6 0-5-1.4-1.4-1.5-1.4-3.6v-2.1q0-2.1 1.4-3.6 1.4-1.4 5-1.4t5 1.4q1.4 1.5 1.4 3.6v2.1q0 2.1-1.4 3.6-1.4 1.4-5 1.4Zm-17.1 42v-8.3h11.8v-20.6h-11.8v-8.3h22.4v28.9h11v8.3h-33.4Zm51.7 0h-10.6v-37.2h10.6v6.8h.5q.6-1.6 1.6-3 .9-1.4 2.2-2.4 1.4-1 3.1-1.7 1.8-.6 4-.6 2.7 0 4.9.9t3.8 2.7q1.6 1.8 2.5 4.4.9 2.6.9 6V183H761v-22.7q0-7.2-6.3-7.2-1.2 0-2.4.4-1.2.3-2.1 1-1 .7-1.5 1.7-.6 1-.6 2.3V183Zm69.9 3.7q0 5.9-5 8.7-5 2.8-15.6 2.8-5.3 0-8.8-.6-3.5-.6-5.5-1.8-2.1-1.1-2.9-2.7-.8-1.6-.8-3.5 0-3.1 1.9-4.7 1.8-1.7 5.2-2.5v-.5q-2.4-.7-3.8-2t-1.4-3.8q0-2.7 1.9-4 1.8-1.3 4.8-2v-.5q-3.3-1.6-5.1-4.4-1.9-2.9-1.9-7 0-3.3 1.2-5.7 1.1-2.5 3.3-4.2 2.1-1.6 5-2.5 3-.9 6.7-.9 3.5 0 6.5.8v-2q0-2.1 1.5-3.6 1.5-1.4 4.2-1.4h6.6v7.7h-9v.7q3.1 1.6 4.7 4.4 1.7 2.7 1.7 6.7 0 3.2-1.1 5.7-1.2 2.4-3.3 4.1-2.2 1.7-5.2 2.6-3 .8-6.6.8-1.7 0-3.2-.1-1.5-.2-2.9-.6-.8.4-1.3 1.1-.6.6-.6 1.6 0 .9.5 1.4.4.5 1.2.8.7.2 1.7.3 1 .1 2.1.1h8.5q4 0 6.8.8t4.6 2.2q1.8 1.4 2.6 3.4.8 1.9.8 4.3Zm-10.1.8q0-1.5-1.2-2.3-1.1-.8-4.3-.8h-12.8q-1.4 1.2-1.4 3 0 1.7 1.4 2.9 1.5 1.1 5 1.1h6.3q3.7 0 5.3-1 1.7-1 1.7-2.9Zm-10.7-22.8q3.2 0 4.7-1.6t1.5-4.1v-1.7q0-2.4-1.5-4t-4.7-1.6q-3.2 0-4.6 1.6-1.5 1.6-1.5 4v1.7q0 2.5 1.5 4.1 1.4 1.6 4.6 1.6ZM132 226.3h10.8v31.8q0 2.4.1 4.4.2 2 .9 3.3.7 1.4 2.1 2.1 1.3.8 3.7.8 2.4 0 3.7-.8 1.4-.7 2.1-2.1.7-1.3.9-3.3.1-2 .1-4.4v-31.8h10.8v30.4q0 5.2-.6 9.1-.7 3.8-2.7 6.4-1.9 2.6-5.4 3.9-3.4 1.3-8.9 1.3t-8.9-1.3q-3.5-1.3-5.4-3.9-2-2.6-2.7-6.4-.6-3.9-.6-9.1v-30.4Zm60.4 51.1q-6.2 0-10.8-1.9-4.6-1.8-6.9-5.1l6-5.5q2.2 2.4 5.1 3.7 2.9 1.3 6.6 1.3 3.2 0 5-.9 1.8-1 1.8-3 0-1.6-1.2-2.2-1.2-.6-3.4-1l-6-.9q-2.5-.4-4.7-1.2-2.1-.7-3.7-2t-2.5-3.2q-1-1.8-1-4.5 0-5.8 4.5-9.2 4.5-3.3 12.5-3.3 5.5 0 9.4 1.5 3.8 1.5 6.1 4.2l-5.3 6.1q-1.7-1.8-4.3-3.1-2.6-1.2-6.2-1.2-6.2 0-6.2 3.8 0 1.6 1.2 2.2 1.2.6 3.4 1l5.9.9q2.5.4 4.7 1.2 2.1.7 3.8 2 1.6 1.3 2.5 3.2.9 1.9.9 4.5 0 5.8-4.5 9.2-4.5 3.4-12.7 3.4Zm45.9-42.8q-3.6 0-5-1.4-1.4-1.5-1.4-3.6v-2.1q0-2.1 1.4-3.6 1.4-1.4 5-1.4t5 1.4q1.4 1.5 1.4 3.6v2.1q0 2.1-1.4 3.6-1.4 1.4-5 1.4Zm-17.1 42v-8.3H233v-20.6h-11.8v-8.3h22.4v28.9h11v8.3h-33.4Zm51.7 0h-10.6v-37.2h10.6v6.8h.5q.6-1.6 1.6-3 .9-1.4 2.2-2.4 1.4-1 3.1-1.7 1.8-.6 4-.6 2.7 0 4.9.9t3.8 2.7q1.6 1.8 2.5 4.4.9 2.6.9 6v24.1h-10.6v-22.7q0-7.2-6.3-7.2-1.2 0-2.4.4-1.2.3-2.1 1-1 .7-1.5 1.7-.6 1-.6 2.3v24.5Zm69.9 3.7q0 5.9-5 8.7-5 2.8-15.6 2.8-5.3 0-8.8-.6-3.5-.6-5.5-1.8-2.1-1.1-2.9-2.7-.8-1.6-.8-3.5 0-3.1 1.9-4.7 1.8-1.7 5.2-2.5v-.5q-2.4-.7-3.8-2t-1.4-3.8q0-2.7 1.9-4 1.8-1.3 4.8-2v-.5q-3.3-1.6-5.1-4.4-1.9-2.9-1.9-7 0-3.3 1.2-5.7 1.1-2.5 3.3-4.2 2.1-1.6 5-2.5 3-.9 6.7-.9 3.5 0 6.5.8v-2q0-2.1 1.5-3.6 1.5-1.4 4.2-1.4h6.6v7.7h-9v.7q3.1 1.6 4.7 4.4 1.7 2.7 1.7 6.7 0 3.2-1.1 5.7-1.2 2.4-3.3 4.1-2.2 1.7-5.2 2.6-3 .8-6.6.8-1.7 0-3.2-.1-1.5-.2-2.9-.6-.8.4-1.3 1.1-.6.6-.6 1.6 0 .9.5 1.4.4.5 1.2.8.7.2 1.7.3 1 .1 2.1.1h8.5q4 0 6.8.8t4.6 2.2q1.8 1.4 2.6 3.4.8 1.9.8 4.3Zm-10.1.8q0-1.5-1.2-2.3-1.1-.8-4.3-.8h-12.8q-1.4 1.2-1.4 3 0 1.7 1.4 2.9 1.5 1.1 5 1.1h6.3q3.7 0 5.3-1 1.7-1 1.7-2.9ZM322 258.3q3.2 0 4.7-1.6t1.5-4.1v-1.7q0-2.4-1.5-4t-4.7-1.6q-3.2 0-4.6 1.6-1.5 1.6-1.5 4v1.7q0 2.5 1.5 4.1 1.4 1.6 4.6 1.6Zm103.4 18.3h-13.7q-5.8 0-8.6-3.1-2.8-3-2.8-7.7v-18.1h-10.1v-8.3h6.6q2.4 0 3.4-.9 1-1 1-3.5v-8.7h9.8v13.1h14.4v8.3H411v20.6h14.4v8.3Zm9.7 0v-53.3h10.6v22.9h.5q.6-1.6 1.6-3 .9-1.4 2.2-2.4 1.4-1 3.1-1.7 1.8-.6 4-.6 2.7 0 4.9.9t3.8 2.7q1.6 1.8 2.5 4.4.9 2.6.9 6v24.1h-10.6v-22.7q0-7.2-6.3-7.2-1.2 0-2.4.4-1.2.3-2.1 1-1 .7-1.5 1.7-.6 1-.6 2.3v24.5h-10.6Zm61.1.8q-9.4 0-14.2-5.2-4.8-5.2-4.8-14.1 0-4.5 1.3-8.2 1.2-3.6 3.6-6.1 2.3-2.6 5.6-3.9 3.4-1.4 7.6-1.4 4.1 0 7.5 1.4 3.3 1.3 5.6 3.7 2.3 2.5 3.5 6 1.3 3.5 1.3 7.8v3.2h-25.4v.6q0 3.6 2.2 5.8 2.2 2.2 6.6 2.2 3.3 0 5.7-1.3 2.3-1.2 4.1-3.3l5.7 6.3q-2.1 2.6-6 4.6-3.9 1.9-9.9 1.9Zm-.9-31.2q-3.4 0-5.5 2.1-2 2.1-2 5.7v.6h15v-.6q0-3.7-2-5.7-2-2.1-5.5-2.1Zm69.6 30.4v-8.3h11.4v-36.7h-11.4v-8.3h22v45h11.4v8.3h-33.4Zm79.5 0h-6.1q-3.3 0-5.4-1.7-2-1.7-2.3-4.9h-.4q-1 3.7-4 5.5-3 1.9-7.3 1.9-5.4 0-8.7-2.9-3.3-2.9-3.3-8.2 0-5.8 4.3-8.6 4.2-2.8 12.4-2.8h6V253q0-3.3-1.5-5-1.6-1.7-5.2-1.7-3.4 0-5.5 1.3t-3.6 3.4l-5.8-5.2q1.8-3.2 5.8-5.2 4-2.1 10.3-2.1 7.6 0 11.9 3.5 4.3 3.5 4.3 10.6v16.2h4.1v7.8Zm-21.5-6.2q2.8 0 4.8-1.3 1.9-1.4 1.9-4v-4.5h-5.7q-6.5 0-6.5 4.4v1.5q0 1.9 1.5 2.9t4 1Zm44.7 7q-6.2 0-10.8-1.9-4.6-1.8-6.9-5.1l6-5.5q2.2 2.4 5.1 3.7 2.9 1.3 6.6 1.3 3.2 0 5-.9 1.8-1 1.8-3 0-1.6-1.2-2.2-1.2-.6-3.4-1l-6-.9q-2.5-.4-4.7-1.2-2.1-.7-3.7-2t-2.5-3.2q-1-1.8-1-4.5 0-5.8 4.5-9.2 4.5-3.3 12.5-3.3 5.5 0 9.4 1.5 3.8 1.5 6.1 4.2l-5.3 6.1q-1.7-1.8-4.3-3.1-2.6-1.2-6.2-1.2-6.2 0-6.2 3.8 0 1.6 1.2 2.2 1.2.6 3.4 1l5.9.9q2.5.4 4.7 1.2 2.1.7 3.8 2 1.6 1.3 2.5 3.2.9 1.9.9 4.5 0 5.8-4.5 9.2-4.5 3.4-12.7 3.4Zm60.2-.8h-13.7q-5.8 0-8.6-3.1-2.8-3-2.8-7.7v-18.1h-10.1v-8.3h6.6q2.4 0 3.4-.9 1-1 1-3.5v-8.7h9.8v13.1h14.4v8.3h-14.4v20.6h14.4v8.3Zm-558.6 93.6h-6.1q-3.3 0-5.4-1.7-2-1.7-2.3-4.9h-.4q-1 3.7-4 5.5-3 1.9-7.3 1.9-5.4 0-8.7-2.9-3.3-2.9-3.3-8.2 0-5.8 4.3-8.6 4.2-2.8 12.4-2.8h6v-1.9q0-3.3-1.5-5-1.6-1.7-5.2-1.7-3.4 0-5.5 1.3t-3.6 3.4l-5.8-5.2q1.8-3.2 5.8-5.2 4-2.1 10.3-2.1 7.6 0 11.9 3.5 4.3 3.5 4.3 10.6v16.2h4.1v7.8Zm-21.5-6.2q2.8 0 4.8-1.3 1.9-1.4 1.9-4v-4.5h-5.7q-6.5 0-6.5 4.4v1.5q0 1.9 1.5 2.9t4 1Zm28.8 6.2v-8.3h8.6v-20.6h-8.6V333h19.3v10.5h.5q.5-2 1.4-3.9.9-1.9 2.3-3.4t3.4-2.3q2-.9 4.7-.9h3.6v9.8h-8q-3.9 0-5.9 2.3-2 2.4-2 5.8v11H208v8.3h-31.5Zm79.9 3.7q0 5.9-5 8.7-5 2.8-15.6 2.8-5.3 0-8.8-.6-3.5-.6-5.5-1.8-2.1-1.1-2.9-2.7-.8-1.6-.8-3.5 0-3.1 1.9-4.7 1.8-1.7 5.2-2.5v-.5q-2.4-.7-3.8-2t-1.4-3.8q0-2.7 1.9-4 1.8-1.3 4.8-2v-.5q-3.3-1.6-5.1-4.4-1.9-2.9-1.9-7 0-3.3 1.2-5.7 1.1-2.5 3.3-4.2 2.1-1.6 5-2.5 3-.9 6.7-.9 3.5 0 6.5.8v-2q0-2.1 1.5-3.6 1.5-1.4 4.2-1.4h6.6v7.7h-9v.7q3.1 1.6 4.7 4.4 1.7 2.7 1.7 6.7 0 3.2-1.1 5.7-1.2 2.4-3.3 4.1-2.2 1.7-5.2 2.6-3 .8-6.6.8-1.7 0-3.2-.1-1.5-.2-2.9-.6-.8.4-1.3 1.1-.6.6-.6 1.6 0 .9.5 1.4.4.5 1.2.8.7.2 1.7.3 1 .1 2.1.1h8.5q4 0 6.8.8t4.6 2.2q1.8 1.4 2.6 3.4.8 1.9.8 4.3Zm-10.1.8q0-1.5-1.2-2.3-1.1-.8-4.3-.8H228q-1.4 1.2-1.4 3 0 1.7 1.4 2.9 1.5 1.1 5 1.1h6.3q3.7 0 5.3-1 1.7-1 1.7-2.9Zm-10.7-22.8q3.2 0 4.7-1.6t1.5-4.1v-1.7q0-2.4-1.5-4t-4.7-1.6q-3.2 0-4.6 1.6-1.5 1.6-1.5 4v1.7q0 2.5 1.5 4.1 1.4 1.6 4.6 1.6Zm49.9 18.3v-6.8h-.5q-1.2 3.2-3.8 5.4-2.6 2.2-7.1 2.2-2.7 0-4.9-.9t-3.8-2.7q-1.6-1.8-2.5-4.4-.9-2.6-.9-6v-24h10.6v22.6q0 7.2 6.3 7.2 1.2 0 2.4-.3t2.1-1q.9-.7 1.5-1.7t.6-2.4V333h10.6v37.2h-10.6Zm26 0H303V333h8.5v5.5h.5q.9-2.6 2.5-4.5t4.6-1.9q5.4 0 6.6 6.4h.4q.5-1.3 1.1-2.5.7-1.1 1.6-2 .9-.9 2.2-1.4 1.3-.5 3.1-.5 7.7 0 7.7 11.5v26.6h-8.5v-25.5q0-2.6-.9-3.7-.9-1-2.4-1-1.3 0-2.3.9-1 .9-1 2.8v26.5h-8.6v-25.5q0-2.6-.8-3.7-.9-1-2.3-1-1.5 0-2.5.9t-1 2.8v26.5Zm55.1.8q-9.4 0-14.2-5.2-4.8-5.2-4.8-14.1 0-4.5 1.3-8.2 1.2-3.6 3.6-6.1 2.3-2.6 5.6-3.9 3.4-1.4 7.6-1.4 4.1 0 7.5 1.4 3.3 1.3 5.6 3.7 2.3 2.5 3.5 6 1.3 3.5 1.3 7.8v3.2h-25.4v.6q0 3.6 2.2 5.8 2.2 2.2 6.6 2.2 3.3 0 5.7-1.3 2.3-1.2 4.1-3.3l5.7 6.3q-2.1 2.6-6 4.6-3.9 1.9-9.9 1.9Zm-.9-31.2q-3.4 0-5.5 2.1-2 2.1-2 5.7v.6h15v-.6q0-3.7-2-5.7-2-2.1-5.5-2.1Zm36.8 30.4h-10.6V333h10.6v6.8h.5q.6-1.6 1.6-3 .9-1.4 2.2-2.4 1.4-1 3.1-1.7 1.8-.6 4-.6 2.7 0 4.9.9t3.8 2.7q1.6 1.8 2.5 4.4.9 2.6.9 6v24.1h-10.6v-22.7q0-7.2-6.3-7.2-1.2 0-2.4.4-1.2.3-2.1 1-1 .7-1.5 1.7-.6 1-.6 2.3v24.5Zm66.1 0h-13.7q-5.8 0-8.6-3.1-2.8-3-2.8-7.7v-18.1h-10.1V333h6.6q2.4 0 3.4-.9 1-1 1-3.5v-8.7h9.8V333h14.4v8.3h-14.4v20.6h14.4v8.3Zm89.4 0h-6.1q-3.3 0-5.4-1.7-2-1.7-2.3-4.9h-.4q-1 3.7-4 5.5-3 1.9-7.3 1.9-5.4 0-8.7-2.9-3.3-2.9-3.3-8.2 0-5.8 4.3-8.6 4.2-2.8 12.4-2.8h6v-1.9q0-3.3-1.5-5-1.6-1.7-5.2-1.7-3.4 0-5.5 1.3t-3.6 3.4l-5.8-5.2q1.8-3.2 5.8-5.2 4-2.1 10.3-2.1 7.6 0 11.9 3.5 4.3 3.5 4.3 10.6v16.2h4.1v7.8Zm-21.5-6.2q2.8 0 4.8-1.3 1.9-1.4 1.9-4v-4.5h-5.7q-6.5 0-6.5 4.4v1.5q0 1.9 1.5 2.9t4 1Zm44.7 7q-6.2 0-10.8-1.9-4.6-1.8-6.9-5.1l6-5.5q2.2 2.4 5.1 3.7 2.9 1.3 6.6 1.3 3.2 0 5-.9 1.8-1 1.8-3 0-1.6-1.2-2.2-1.2-.6-3.4-1l-6-.9q-2.5-.4-4.7-1.2-2.1-.7-3.7-2t-2.5-3.2q-1-1.8-1-4.5 0-5.8 4.5-9.2 4.5-3.3 12.5-3.3 5.5 0 9.4 1.5 3.8 1.5 6.1 4.2l-5.3 6.1q-1.7-1.8-4.3-3.1-2.6-1.2-6.2-1.2-6.2 0-6.2 3.8 0 1.6 1.2 2.2 1.2.6 3.4 1l5.9.9q2.5.4 4.7 1.2 2.1.7 3.8 2 1.6 1.3 2.5 3.2.9 1.9.9 4.5 0 5.8-4.5 9.2-4.5 3.4-12.7 3.4Zm69.9-.8v-53.3h10.6v30.2h.5l5-5.8 7.8-8.3h12.2l-14.4 14.7 15.9 22.5h-12.6l-10.8-16.5-3.6 3.6v12.9h-10.6Zm61.1.8q-9.4 0-14.2-5.2-4.8-5.2-4.8-14.1 0-4.5 1.3-8.2 1.2-3.6 3.6-6.1 2.3-2.6 5.6-3.9 3.4-1.4 7.6-1.4 4.1 0 7.5 1.4 3.3 1.3 5.6 3.7 2.3 2.5 3.5 6 1.3 3.5 1.3 7.8v3.2h-25.4v.6q0 3.6 2.2 5.8 2.2 2.2 6.6 2.2 3.3 0 5.7-1.3 2.3-1.2 4.1-3.3l5.7 6.3q-2.1 2.6-6 4.6-3.9 1.9-9.9 1.9Zm-.9-31.2q-3.4 0-5.5 2.1-2 2.1-2 5.7v.6h15v-.6q0-3.7-2-5.7-2-2.1-5.5-2.1Zm46.9 8.8 5.6-15.6h10.8l-17.5 43.1q-1.6 4.1-4.4 6.3-2.7 2.2-7.4 2.2h-7.4v-8.3h8.9l2.3-6.4-14.9-36.9h11.4l5.4 15.6 3.4 10.8h.6l3.2-10.8Zm22.7 21.6-4.4-37.2h8.9l2.6 30.1h.7l4.4-30.1h9.4l4.3 30.1h.7l2.8-30.1h8.4l-4.4 37.2h-12.7l-3.6-25.7h-.8l-3.6 25.7h-12.7Zm59.9.8q-4.3 0-7.8-1.3-3.4-1.3-5.8-3.9-2.5-2.5-3.8-6.1-1.2-3.6-1.2-8.1 0-4.6 1.2-8.2 1.3-3.6 3.8-6.1 2.4-2.5 5.8-3.8 3.5-1.4 7.8-1.4t7.8 1.4q3.4 1.3 5.8 3.8 2.5 2.5 3.8 6.1 1.2 3.6 1.2 8.2 0 4.5-1.2 8.1-1.3 3.6-3.8 6.1-2.4 2.6-5.8 3.9-3.5 1.3-7.8 1.3Zm0-7.9q3.6 0 5.6-2.2 2-2.3 2-6.4v-5.9q0-4.1-2-6.3t-5.6-2.2q-3.6 0-5.6 2.2-2 2.2-2 6.3v5.9q0 4.1 2 6.4 2 2.2 5.6 2.2Zm26.9 7.1v-8.3h8.6v-20.6h-8.6V333H887v10.5h.5q.5-2 1.4-3.9.9-1.9 2.3-3.4t3.4-2.3q2-.9 4.7-.9h3.6v9.8h-8q-3.9 0-5.9 2.3-2 2.4-2 5.8v11h12.2v8.3h-31.5Zm66.2 0v-6.8h-.5q-1.4 3.4-4 5.5t-7 2.1q-3.1 0-5.7-1.1-2.5-1.2-4.4-3.6-1.8-2.3-2.8-6-1.1-3.7-1.1-8.7 0-5.1 1.1-8.7 1-3.7 2.8-6.1 1.9-2.4 4.4-3.5 2.6-1.2 5.7-1.2 2.2 0 3.9.6 1.8.6 3.1 1.6t2.3 2.4q1 1.4 1.7 3.1h.5v-22.9h10.7v53.3h-10.7Zm-6.9-7.5q2.8 0 4.8-1.3 2.1-1.4 2.1-4.4v-10.9q0-2.9-2.1-4.3-2-1.4-4.8-1.4-3.6 0-5.6 2.2-1.9 2.2-1.9 6.1v5.8q0 3.8 1.9 6 2 2.2 5.6 2.2ZM132.2 478.2v-51.6h10.7v6.8h.5q1.4-3.3 4-5.5t7-2.2q3.1 0 5.7 1.2 2.5 1.1 4.4 3.5 1.8 2.4 2.8 6.1 1.1 3.6 1.1 8.7 0 5-1.1 8.7-1 3.7-2.8 6-1.9 2.4-4.4 3.6-2.6 1.1-5.7 1.1-4.4 0-7-2.1-2.6-2.1-4-5.5h-.5v21.2h-10.7Zm17.6-21.9q3.6 0 5.6-2.2 1.9-2.2 1.9-6v-5.8q0-3.9-1.9-6.1-2-2.2-5.6-2.2-2.8 0-4.8 1.4-2.1 1.4-2.1 4.3v10.9q0 3 2.1 4.4 2 1.3 4.8 1.3Zm62.6 7.5h-6.1q-3.3 0-5.4-1.7-2-1.7-2.3-4.9h-.4q-1 3.7-4 5.5-3 1.9-7.3 1.9-5.4 0-8.7-2.9-3.3-2.9-3.3-8.2 0-5.8 4.3-8.6 4.2-2.8 12.4-2.8h6v-1.9q0-3.3-1.5-5-1.6-1.7-5.2-1.7-3.4 0-5.5 1.3t-3.6 3.4L176 433q1.8-3.2 5.8-5.2 4-2.1 10.3-2.1 7.6 0 11.9 3.5 4.3 3.5 4.3 10.6V456h4.1v7.8Zm-21.5-6.2q2.8 0 4.8-1.3 1.9-1.4 1.9-4v-4.5h-5.7q-6.5 0-6.5 4.4v1.5q0 1.9 1.5 2.9t4 1Zm28.8 6.2v-8.3h8.6v-20.6h-8.6v-8.3H239v10.5h.5q.5-2 1.4-3.9.9-1.9 2.3-3.4t3.4-2.3q2-.9 4.7-.9h3.6v9.8h-8q-3.9 0-5.9 2.3-2 2.4-2 5.8v11h12.2v8.3h-31.5Zm79.1 0h-6.1q-3.3 0-5.4-1.7-2-1.7-2.3-4.9h-.4q-1 3.7-4 5.5-3 1.9-7.3 1.9-5.4 0-8.7-2.9-3.3-2.9-3.3-8.2 0-5.8 4.3-8.6 4.2-2.8 12.4-2.8h6v-1.9q0-3.3-1.5-5-1.6-1.7-5.2-1.7-3.4 0-5.5 1.3t-3.6 3.4l-5.8-5.2q1.8-3.2 5.8-5.2 4-2.1 10.3-2.1 7.6 0 11.9 3.5 4.3 3.5 4.3 10.6V456h4.1v7.8Zm-21.5-6.2q2.8 0 4.8-1.3 1.9-1.4 1.9-4v-4.5h-5.7q-6.5 0-6.5 4.4v1.5q0 1.9 1.5 2.9t4 1Zm34.2 6.2H303v-37.2h8.5v5.5h.5q.9-2.6 2.5-4.5t4.6-1.9q5.4 0 6.6 6.4h.4q.5-1.3 1.1-2.5.7-1.1 1.6-2 .9-.9 2.2-1.4 1.3-.5 3.1-.5 7.7 0 7.7 11.5v26.6h-8.5v-25.5q0-2.6-.9-3.7-.9-1-2.4-1-1.3 0-2.3.9-1 .9-1 2.8v26.5h-8.6v-25.5q0-2.6-.8-3.7-.9-1-2.3-1-1.5 0-2.5.9t-1 2.8v26.5Zm55.1.8q-9.4 0-14.2-5.2-4.8-5.2-4.8-14.1 0-4.5 1.3-8.2 1.2-3.6 3.6-6.1 2.3-2.6 5.6-3.9 3.4-1.4 7.6-1.4 4.1 0 7.5 1.4 3.3 1.3 5.6 3.7 2.3 2.5 3.5 6 1.3 3.5 1.3 7.8v3.2h-25.4v.6q0 3.6 2.2 5.8 2.2 2.2 6.6 2.2 3.3 0 5.7-1.3 2.3-1.2 4.1-3.3l5.7 6.3q-2.1 2.6-6 4.6-3.9 1.9-9.9 1.9Zm-.9-31.2q-3.4 0-5.5 2.1-2 2.1-2 5.7v.6h15v-.6q0-3.7-2-5.7-2-2.1-5.5-2.1Zm59.7 30.4h-13.7q-5.8 0-8.6-3.1-2.8-3-2.8-7.7v-18.1h-10.1v-8.3h6.6q2.4 0 3.4-.9 1-1 1-3.5v-8.7h9.8v13.1h14.4v8.3H411v20.6h14.4v8.3Zm27.6.8q-9.4 0-14.2-5.2-4.8-5.2-4.8-14.1 0-4.5 1.3-8.2 1.2-3.6 3.6-6.1 2.3-2.6 5.6-3.9 3.4-1.4 7.6-1.4 4.1 0 7.5 1.4 3.3 1.3 5.6 3.7 2.3 2.5 3.5 6 1.3 3.5 1.3 7.8v3.2h-25.4v.6q0 3.6 2.2 5.8 2.2 2.2 6.6 2.2 3.3 0 5.7-1.3 2.3-1.2 4.1-3.3l5.7 6.3q-2.1 2.6-6 4.6-3.9 1.9-9.9 1.9Zm-.9-31.2q-3.4 0-5.5 2.1-2 2.1-2 5.7v.6h15v-.6q0-3.7-2-5.7-2-2.1-5.5-2.1Zm26.8 30.4v-8.3h8.6v-20.6h-8.6v-8.3h19.3v10.5h.5q.5-2 1.4-3.9.9-1.9 2.3-3.4t3.4-2.3q2-.9 4.7-.9h3.6v9.8h-8q-3.9 0-5.9 2.3-2 2.4-2 5.8v11h12.2v8.3h-31.5Zm59.1.8q-6.2 0-10.8-1.9-4.6-1.8-6.9-5.1l6-5.5q2.2 2.4 5.1 3.7 2.9 1.3 6.6 1.3 3.2 0 5-.9 1.8-1 1.8-3 0-1.6-1.2-2.2-1.2-.6-3.4-1l-6-.9q-2.5-.4-4.7-1.2-2.1-.7-3.7-2t-2.5-3.2q-1-1.8-1-4.5 0-5.8 4.5-9.2 4.5-3.3 12.5-3.3 5.5 0 9.4 1.5 3.8 1.5 6.1 4.2l-5.3 6.1q-1.7-1.8-4.3-3.1-2.6-1.2-6.2-1.2-6.2 0-6.2 3.8 0 1.6 1.2 2.2 1.2.6 3.4 1l5.9.9q2.5.4 4.7 1.2 2.1.7 3.8 2 1.6 1.3 2.5 3.2.9 1.9.9 4.5 0 5.8-4.5 9.2-4.5 3.4-12.7 3.4Zm89.1-42.8q-3.6 0-5-1.4-1.4-1.5-1.4-3.6v-2.1q0-2.1 1.4-3.6 1.4-1.4 5-1.4t5 1.4q1.4 1.5 1.4 3.6v2.1q0 2.1-1.4 3.6-1.4 1.4-5 1.4Zm-17.1 42v-8.3h11.8v-20.6H610v-8.3h22.4v28.9h11v8.3H610Zm57.6.8q-6.2 0-10.8-1.9-4.6-1.8-6.9-5.1l6-5.5q2.2 2.4 5.1 3.7 2.9 1.3 6.6 1.3 3.2 0 5-.9 1.8-1 1.8-3 0-1.6-1.2-2.2-1.2-.6-3.4-1l-6-.9q-2.5-.4-4.7-1.2-2.1-.7-3.7-2t-2.5-3.2q-1-1.8-1-4.5 0-5.8 4.5-9.2 4.5-3.3 12.5-3.3 5.5 0 9.4 1.5 3.8 1.5 6.1 4.2l-5.3 6.1q-1.7-1.8-4.3-3.1-2.6-1.2-6.2-1.2-6.2 0-6.2 3.8 0 1.6 1.2 2.2 1.2.6 3.4 1l5.9.9q2.5.4 4.7 1.2 2.1.7 3.8 2 1.6 1.3 2.5 3.2.9 1.9.9 4.5 0 5.8-4.5 9.2-4.5 3.4-12.7 3.4Zm-511.3 92.8v-6.8h-.5q-1.4 3.4-4 5.5t-7 2.1q-3.1 0-5.7-1.1-2.5-1.2-4.4-3.6-1.8-2.3-2.8-6-1.1-3.7-1.1-8.7 0-5.1 1.1-8.7 1-3.7 2.8-6.1 1.9-2.4 4.4-3.5 2.6-1.2 5.7-1.2 2.2 0 3.9.6 1.8.6 3.1 1.6t2.3 2.4q1 1.4 1.7 3.1h.5v-22.9H167v53.3h-10.7Zm-6.9-7.5q2.8 0 4.8-1.3 2.1-1.4 2.1-4.4v-10.9q0-2.9-2.1-4.3-2-1.4-4.8-1.4-3.6 0-5.6 2.2-1.9 2.2-1.9 6.1v5.8q0 3.8 1.9 6 2 2.2 5.6 2.2Zm44.4 8.3q-9.4 0-14.2-5.2-4.8-5.2-4.8-14.1 0-4.5 1.3-8.2 1.2-3.6 3.6-6.1 2.3-2.6 5.6-3.9 3.4-1.4 7.6-1.4 4.1 0 7.5 1.4 3.3 1.3 5.6 3.7 2.3 2.5 3.5 6 1.3 3.5 1.3 7.8v3.2h-25.4v.6q0 3.6 2.2 5.8 2.2 2.2 6.6 2.2 3.3 0 5.7-1.3 2.3-1.2 4.1-3.3l5.7 6.3q-2.1 2.6-6 4.6-3.9 1.9-9.9 1.9Zm-.9-31.2q-3.4 0-5.5 2.1-2 2.1-2 5.7v.6h15v-.6q0-3.7-2-5.7-2-2.1-5.5-2.1Zm25.7 44.8v-51.6h10.7v6.8h.5q1.4-3.3 4-5.5t7-2.2q3.1 0 5.7 1.2 2.5 1.1 4.4 3.5 1.8 2.4 2.8 6.1 1.1 3.6 1.1 8.7 0 5-1.1 8.7-1 3.7-2.8 6-1.9 2.4-4.4 3.6-2.6 1.1-5.7 1.1-4.4 0-7-2.1-2.6-2.1-4-5.5h-.5v21.2h-10.7Zm17.6-21.9q3.6 0 5.6-2.2 1.9-2.2 1.9-6v-5.8q0-3.9-1.9-6.1-2-2.2-5.6-2.2-2.8 0-4.8 1.4-2.1 1.4-2.1 4.3v10.9q0 3 2.1 4.4 2 1.3 4.8 1.3Zm26.7 7.5v-8.3h8.6v-20.6h-8.6v-8.3h19.3v10.5h.5q.5-2 1.4-3.9.9-1.9 2.3-3.4t3.4-2.3q2-.9 4.7-.9h3.6v9.8h-8q-3.9 0-5.9 2.3-2 2.4-2 5.8v11h12.2v8.3h-31.5Zm60.5.8q-9.4 0-14.2-5.2-4.8-5.2-4.8-14.1 0-4.5 1.3-8.2 1.2-3.6 3.6-6.1 2.3-2.6 5.6-3.9 3.4-1.4 7.6-1.4 4.1 0 7.5 1.4 3.3 1.3 5.6 3.7 2.3 2.5 3.5 6 1.3 3.5 1.3 7.8v3.2H315v.6q0 3.6 2.2 5.8 2.2 2.2 6.6 2.2 3.3 0 5.7-1.3 2.3-1.2 4.1-3.3l5.7 6.3q-2.1 2.6-6 4.6-3.9 1.9-9.9 1.9Zm-.9-31.2q-3.4 0-5.5 2.1-2 2.1-2 5.7v.6h15v-.6q0-3.7-2-5.7-2-2.1-5.5-2.1Zm44.6 31.2q-4.4 0-7.9-1.3t-5.9-3.9q-2.4-2.5-3.7-6.1-1.3-3.6-1.3-8.1 0-4.6 1.3-8.2 1.3-3.6 3.7-6.1 2.4-2.5 5.9-3.8 3.5-1.4 7.8-1.4 6.2 0 9.9 2.5t5.6 6.6l-8.2 4.5q-1-2.2-2.6-3.6-1.6-1.5-4.7-1.5-3.6 0-5.6 2.2-2 2.1-2 5.8v6q0 3.7 2 5.8 2 2.1 5.8 2.1 3.1 0 4.8-1.4 1.8-1.5 3-3.8l8.1 4.6q-2 4.1-5.9 6.6-3.8 2.5-10.1 2.5Zm61.3-.8h-6.1q-3.3 0-5.4-1.7-2-1.7-2.3-4.9h-.4q-1 3.7-4 5.5-3 1.9-7.3 1.9-5.4 0-8.7-2.9-3.3-2.9-3.3-8.2 0-5.8 4.3-8.6 4.2-2.8 12.4-2.8h6v-1.9q0-3.3-1.5-5-1.6-1.7-5.2-1.7-3.4 0-5.5 1.3t-3.6 3.4l-5.8-5.2q1.8-3.2 5.8-5.2 4-2.1 10.3-2.1 7.6 0 11.9 3.5 4.3 3.5 4.3 10.6v16.2h4.1v7.8Zm-21.5-6.2q2.8 0 4.8-1.3 1.9-1.4 1.9-4v-4.5h-5.7q-6.5 0-6.5 4.4v1.5q0 1.9 1.5 2.9t4 1Zm61.7 6.2h-13.7q-5.8 0-8.6-3.1-2.8-3-2.8-7.7v-18.1h-10.1v-8.3h6.6q2.4 0 3.4-.9 1-1 1-3.5v-8.7h9.8v13.1h14.4v8.3h-14.4v20.6h14.4v8.3Zm27.6.8q-9.4 0-14.2-5.2-4.8-5.2-4.8-14.1 0-4.5 1.3-8.2 1.2-3.6 3.6-6.1 2.3-2.6 5.6-3.9 3.4-1.4 7.6-1.4 4.1 0 7.5 1.4 3.3 1.3 5.6 3.7 2.3 2.5 3.5 6 1.3 3.5 1.3 7.8v3.2h-25.4v.6q0 3.6 2.2 5.8 2.2 2.2 6.6 2.2 3.3 0 5.7-1.3 2.3-1.2 4.1-3.3l5.7 6.3q-2.1 2.6-6 4.6-3.9 1.9-9.9 1.9Zm-.9-31.2q-3.4 0-5.5 2.1-2 2.1-2 5.7v.6h15v-.6q0-3.7-2-5.7-2-2.1-5.5-2.1Zm49.8 30.4v-6.8h-.5q-1.4 3.4-4 5.5t-7 2.1q-3.1 0-5.7-1.1-2.5-1.2-4.4-3.6-1.8-2.3-2.8-6-1.1-3.7-1.1-8.7 0-5.1 1.1-8.7 1-3.7 2.8-6.1 1.9-2.4 4.4-3.5 2.6-1.2 5.7-1.2 2.2 0 3.9.6 1.8.6 3.1 1.6t2.3 2.4q1 1.4 1.7 3.1h.5v-22.9h10.7v53.3h-10.7Zm-6.9-7.5q2.8 0 4.8-1.3 2.1-1.4 2.1-4.4v-10.9q0-2.9-2.1-4.3-2-1.4-4.8-1.4-3.6 0-5.6 2.2-1.9 2.2-1.9 6.1v5.8q0 3.8 1.9 6 2 2.2 5.6 2.2Z" clip-path="url(#c)" mask="url(#d)"/><path d="M130.7 520.3v-20.7h2.2v8.6h.1q1.4-2.7 4.5-2.7 2.6 0 4.1 2 1.5 2 1.5 5.5 0 3.6-1.5 5.6-1.5 2-4.1 2-3.1 0-4.5-2.7h-.1v2.4h-2.2Zm5.9-1.7q2 0 3-1.2 1.1-1.2 1.1-3.1v-2.5q0-1.9-1.1-3.1-1-1.2-3-1.2-.8 0-1.4.2-.7.2-1.2.5-.5.4-.8 1-.3.5-.3 1.2v5.3q0 .7.3 1.2.3.6.8.9.5.4 1.2.6.6.2 1.4.2Zm18.8-6.7 2.5-6.1h2.2l-7.2 17.6q-.2.7-.5 1.1-.3.5-.7.8-.5.3-1 .4-.6.2-1.4.2h-2.2V524h3.4l1.6-4-5.8-14.2h2.3l2.4 6.1 2.2 5.5h.1l2.1-5.5Z"/><clipPath id="e"><path d="M178 489h50v36h-50z"/></clipPath><mask id="f"><path fill="#fff" d="M178 489h50v36h-50z"/></mask><path d="m187.9 511.7 2.1-6.1h4.3l-6.8 16.8q-.7 1.6-1.7 2.5-1.1.8-3 .8H180v-3.2h3.5l.9-2.5-5.9-14.4h4.5l2.1 6.1 1.3 4.2h.2l1.3-4.2Zm15.7 8.7q-3.6 0-5.5-2t-1.9-5.5q0-1.7.5-3.2.5-1.4 1.4-2.4.9-1 2.2-1.5 1.3-.5 2.9-.5 1.7 0 2.9.5 1.3.5 2.2 1.5.9.9 1.4 2.3.5 1.4.5 3v1.3h-9.9v.2q0 1.4.9 2.3.9.8 2.5.8 1.3 0 2.2-.5 1-.4 1.6-1.3l2.3 2.5q-.9 1-2.4 1.8-1.5.7-3.8.7Zm-.3-12.1q-1.4 0-2.2.8-.8.8-.8 2.2v.3h5.8v-.3q0-1.4-.7-2.2-.8-.8-2.1-.8Zm14.3 11.8h-4.2v-14.5h4.2v2.7h.1l.6-1.2q.4-.5.9-.9t1.2-.7q.7-.2 1.6-.2 1 0 1.9.4.9.3 1.5 1t.9 1.7q.4 1 .4 2.3v9.4h-4.2v-8.8q0-2.8-2.4-2.8-.5 0-.9.1-.5.2-.9.4-.3.3-.5.7-.2.4-.2.9v9.5Z" clip-path="url(#e)" mask="url(#f)"/><clipPath id="g"><path d="M1021 489h51v36h-51z"/></clipPath><mask id="h"><path fill="#fff" d="M1021 489h51v36h-51z"/></mask><path d="m1030.9 511.7 2.1-6.1h4.3l-6.8 16.8q-.7 1.6-1.7 2.5-1.1.8-3 .8h-2.8v-3.2h3.5l.9-2.5-5.9-14.4h4.5l2.1 6.1 1.3 4.2h.2l1.3-4.2Zm15.7 8.7q-3.6 0-5.5-2t-1.9-5.5q0-1.7.5-3.2.5-1.4 1.4-2.4.9-1 2.2-1.5 1.3-.5 2.9-.5 1.7 0 2.9.5 1.3.5 2.2 1.5.9.9 1.4 2.3.5 1.4.5 3v1.3h-9.9v.2q0 1.4.9 2.3.9.8 2.5.8 1.3 0 2.2-.5 1-.4 1.6-1.3l2.3 2.5q-.9 1-2.4 1.8-1.5.7-3.8.7Zm-.3-12.1q-1.4 0-2.2.8-.8.8-.8 2.2v.3h5.8v-.3q0-1.4-.7-2.2-.8-.8-2.1-.8Zm14.3 11.8h-4.2v-14.5h4.2v2.7h.1l.6-1.2q.4-.5.9-.9t1.2-.7q.7-.2 1.6-.2 1 0 1.9.4.9.3 1.5 1t.9 1.7q.4 1 .4 2.3v9.4h-4.2v-8.8q0-2.8-2.4-2.8-.5 0-.9.1-.5.2-.9.4-.3.3-.5.7-.2.4-.2.9v9.5Z" clip-path="url(#g)" mask="url(#h)"/></svg>