<svg xmlns="http://www.w3.org/2000/svg" width="1200" height="630" viewBox="0 0 1200 630"><path fill="#fefbfb" d="M0 0h1200v630H0z"/><defs><clipPath id="a"><path d="M109 39h1048a4 4 0 0 1 4 4v496a4 4 0 0 1-4 4H109a4 4 0 0 1-4-4V43a4 4 0 0 1 4-4"/></clipPath></defs><g opacity=".9"><path fill="#ecebeb" d="M109 39h1048a4 4 0 0 1 4 4v496a4 4 0 0 1-4 4H109a4 4 0 0 1-4-4V43a4 4 0 0 1 4-4"/><path fill="none" stroke="#000" stroke-width="8" d="M106.172 40.172A4 4 0 0 1 109 39h1048a4 4 0 0 1 4 4v496a4 4 0 0 1-4 4H109a4 4 0 0 1-4-4V43a4 4 0 0 1 1.172-2.828" clip-path="url(#a)"/></g><defs><clipPath id="b"><path d="M76 63h1048a4 4 0 0 1 4 4v496a4 4 0 0 1-4 4H76a4 4 0 0 1-4-4V67a4 4 0 0 1 4-4"/></clipPath></defs><path fill="#fefbfb" d="M76 63h1048a4 4 0 0 1 4 4v496a4 4 0 0 1-4 4H76a4 4 0 0 1-4-4V67a4 4 0 0 1 4-4"/><path fill="none" stroke="#000" stroke-width="8" d="M73.172 64.172A4 4 0 0 1 76 63h1048a4 4 0 0 1 4 4v496a4 4 0 0 1-4 4H76a4 4 0 0 1-4-4V67a4 4 0 0 1 1.172-2.828" clip-path="url(#b)"/><clipPath id="c"><path d="M128 103h944v94H128z"/></clipPath><mask id="d"><path fill="#fff" d="M128 103h944v94H128z"/></mask><path d="M148.8 183.8q-6.3 0-11-2.1t-7.6-5.7l6.3-6.9q2.7 3.1 6 4.5t6.7 1.4q3.9 0 5.9-1.7 2-1.7 2-5 0-2.6-1.6-4-1.5-1.4-5.2-1.9l-5.2-.9q-6.8-1.2-9.8-5-3.1-3.9-3.1-9.4 0-7.3 4.8-11.3 4.8-4 13.3-4 5.9 0 10.2 1.8 4.3 1.8 7 4.9l-6.2 6.9q-2-2.3-4.7-3.5-2.8-1.3-6.2-1.3-7.3 0-7.3 6 0 2.6 1.6 3.9 1.7 1.3 5.3 1.9l5.3 1q6.1 1 9.4 4.6 3.3 3.5 3.3 9.5 0 3.5-1.2 6.5t-3.7 5.2q-2.4 2.2-6 3.4-3.5 1.2-8.3 1.2Zm60.3 5.2v7.7h-10.3q-5.8 0-8.2-2.8-2.5-2.8-2.5-7.6v-2.9q-7.7-1.5-11.3-8.1-3.7-6.6-3.7-17.5 0-12.3 4.8-19.1 4.8-6.9 14.9-6.9 10.1 0 14.9 6.9 4.8 6.8 4.8 19.1 0 10.9-3.7 17.5-3.6 6.6-11.3 8.1v5.6h11.6Zm-16.3-13.9q4.6 0 6.4-3.4 1.7-3.4 1.7-9.6v-8.7q0-6-1.7-9.4-1.8-3.5-6.4-3.5-4.6 0-6.4 3.5-1.7 3.4-1.7 9.4v8.8q0 6.1 1.7 9.5 1.8 3.4 6.4 3.4Zm60.7 7.9H221v-50.3h10.9v41.4h21.6v8.9Zm88.2 0h-38.6v-56.2h38.6V183Zm-31.4-49v41.8h24.2V134h-24.2Zm74.6 49h-38.6v-56.2h38.6V183Zm-31.4-49v41.8h24.2V134h-24.2Zm74.6 49h-38.6v-56.2h38.6V183Zm-31.4-49v41.8h24.2V134h-24.2Zm74.6 49h-38.6v-56.2h38.6V183Zm-31.4-49v41.8h24.2V134h-24.2Z" clip-path="url(#c)" mask="url(#d)"/><path d="M130.7 520.3v-20.7h2.2v8.6h.1q1.4-2.7 4.5-2.7 2.6 0 4.1 2 1.5 2 1.5 5.5 0 3.6-1.5 5.6-1.5 2-4.1 2-3.1 0-4.5-2.7h-.1v2.4h-2.2Zm5.9-1.7q2 0 3-1.2 1.1-1.2 1.1-3.1v-2.5q0-1.9-1.1-3.1-1-1.2-3-1.2-.8 0-1.4.2-.7.2-1.2.5-.5.4-.8 1-.3.5-.3 1.2v5.3q0 .7.3 1.2.3.6.8.9.5.4 1.2.6.6.2 1.4.2Zm18.8-6.7 2.5-6.1h2.2l-7.2 17.6q-.2.7-.5 1.1-.3.5-.7.8-.5.3-1 .4-.6.2-1.4.2h-2.2V524h3.4l1.6-4-5.8-14.2h2.3l2.4 6.1 2.2 5.5h.1l2.1-5.5Z"/><clipPath id="e"><path d="M178 489h50v36h-50z"/></clipPath><mask id="f"><path fill="#fff" d="M178 489h50v36h-50z"/></mask><path d="m187.9 511.7 2.1-6.1h4.3l-6.8 16.8q-.7 1.6-1.7 2.5-1.1.8-3 .8H180v-3.2h3.5l.9-2.5-5.9-14.4h4.5l2.1 6.1 1.3 4.2h.2l1.3-4.2Zm15.7 8.7q-3.6 0-5.5-2t-1.9-5.5q0-1.7.5-3.2.5-1.4 1.4-2.4.9-1 2.2-1.5 1.3-.5 2.9-.5 1.7 0 2.9.5 1.3.5 2.2 1.5.9.9 1.4 2.3.5 1.4.5 3v1.3h-9.9v.2q0 1.4.9 2.3.9.8 2.5.8 1.3 0 2.2-.5 1-.4 1.6-1.3l2.3 2.5q-.9 1-2.4 1.8-1.5.7-3.8.7Zm-.3-12.1q-1.4 0-2.2.8-.8.8-.8 2.2v.3h5.8v-.3q0-1.4-.7-2.2-.8-.8-2.1-.8Zm14.3 11.8h-4.2v-14.5h4.2v2.7h.1l.6-1.2q.4-.5.9-.9t1.2-.7q.7-.2 1.6-.2 1 0 1.9.4.9.3 1.5 1t.9 1.7q.4 1 .4 2.3v9.4h-4.2v-8.8q0-2.8-2.4-2.8-.5 0-.9.1-.5.2-.9.4-.3.3-.5.7-.2.4-.2.9v9.5Z" clip-path="url(#e)" mask="url(#f)"/><clipPath id="g"><path d="M1021 489h51v36h-51z"/></clipPath><mask id="h"><path fill="#fff" d="M1021 489h51v36h-51z"/></mask><path d="m1030.9 511.7 2.1-6.1h4.3l-6.8 16.8q-.7 1.6-1.7 2.5-1.1.8-3 .8h-2.8v-3.2h3.5l.9-2.5-5.9-14.4h4.5l2.1 6.1 1.3 4.2h.2l1.3-4.2Zm15.7 8.7q-3.6 0-5.5-2t-1.9-5.5q0-1.7.5-3.2.5-1.4 1.4-2.4.9-1 2.2-1.5 1.3-.5 2.9-.5 1.7 0 2.9.5 1.3.5 2.2 1.5.9.9 1.4 2.3.5 1.4.5 3v1.3h-9.9v.2q0 1.4.9 2.3.9.8 2.5.8 1.3 0 2.2-.5 1-.4 1.6-1.3l2.3 2.5q-.9 1-2.4 1.8-1.5.7-3.8.7Zm-.3-12.1q-1.4 0-2.2.8-.8.8-.8 2.2v.3h5.8v-.3q0-1.4-.7-2.2-.8-.8-2.1-.8Zm14.3 11.8h-4.2v-14.5h4.2v2.7h.1l.6-1.2q.4-.5.9-.9t1.2-.7q.7-.2 1.6-.2 1 0 1.9.4.9.3 1.5 1t.9 1.7q.4 1 .4 2.3v9.4h-4.2v-8.8q0-2.8-2.4-2.8-.5 0-.9.1-.5.2-.9.4-.3.3-.5.7-.2.4-.2.9v9.5Z" clip-path="url(#g)" mask="url(#h)"/></svg>